<?xml version="1.0" encoding="UTF-8"?>
<svg width="22px" height="22px" viewBox="0 0 22 22" version="1.1" xmlns="http://www.w3.org/2000/svg" xmlns:xlink="http://www.w3.org/1999/xlink">
    <!-- Generator: Sketch 51.1 (57501) - http://www.bohemiancoding.com/sketch -->
    <title>googleplus-logo</title>
    <desc>Created with Sketch.</desc>
    <defs></defs>
    <g id="Page-1" stroke="none" stroke-width="1" fill="none" fill-rule="evenodd">
        <g id="googleplus-logo" fill="#FFFFFF" fill-rule="nonzero">
            <path d="M10.9862669,0 C4.91910062,0 0,4.91910062 0,10.9862669 C0,17.0534333 4.91910062,21.9725339 10.9862669,21.9725339 C17.0534333,21.9725339 21.9725339,17.0534333 21.9725339,10.9862669 C21.9725339,4.91774538 17.0534333,0 10.9862669,0 Z M7.92108419,18.3786283 C5.48902259,18.3786283 3.4373306,17.3884928 3.4373306,15.8064805 C3.4373306,14.2011129 5.3090924,12.6506776 7.74119918,12.6520329 L8.50062834,12.6451663 C8.16827926,12.3224394 7.90464066,11.9255811 7.90464066,11.4353018 C7.90464066,11.144152 7.99801643,10.8653799 8.12712526,10.6168296 L7.722,10.6305626 C5.72388501,10.6305626 4.38631211,9.20923614 4.38631211,7.44729363 C4.38631211,5.72383984 6.23336345,4.23655852 8.19719097,4.23655852 L12.5779466,4.23655852 L11.5946776,4.94516632 L10.2062834,4.94516632 C11.1277536,5.29947023 11.6180329,6.37335934 11.6180329,7.47475975 C11.6180329,8.39898563 11.1057988,9.19550308 10.3820575,9.76126899 C9.67480493,10.3147023 9.54163039,10.5454086 9.54163039,11.0150883 C9.54163039,11.4161027 10.2997043,12.0972444 10.6952074,12.3787721 C11.8528953,13.1972444 12.2250431,13.9566735 12.2250431,15.2242259 C12.2249528,16.8062382 10.6937618,18.3786283 7.92108419,18.3786283 Z M16.4794004,9.63907187 L16.4794004,12.3815277 L15.1074949,12.3815277 L15.1074949,9.63907187 L12.3595729,9.63907187 L12.3595729,8.23970021 L15.1074949,8.23970021 L15.1074949,5.49313347 L16.4794004,5.49313347 L16.4794004,8.23970021 L19.2259671,8.23970021 L19.2259671,9.63907187 L16.4794004,9.63907187 Z" id="Shape"></path>
            <path d="M9.29574538,13.2370883 C8.9633963,13.1299795 8.59675975,13.0654251 8.20536756,13.0613142 C6.52446817,13.0434702 5.01934292,14.0857823 5.01934292,15.3396016 C5.01934292,16.6194867 6.23331828,17.6823984 7.91421766,17.6823984 C10.277614,17.6823984 11.1002423,16.6826407 11.1002423,15.4055113 C11.1002423,15.251692 11.0809979,15.1006283 11.0466653,14.9537207 C10.8626694,14.2285791 10.2075934,13.8701643 9.29574538,13.2370883 Z" id="Shape"></path>
            <path d="M10.0441971,7.55991376 C9.84917864,6.07949897 8.77664476,4.89023409 7.64917864,4.85590144 C6.52171253,4.82292402 5.76503901,5.95590144 5.96005749,7.43902669 C6.15507598,8.92079671 7.22760986,10.1499055 8.35643121,10.1828378 C9.48249692,10.2172156 10.2405708,9.04308419 10.0441971,7.55991376 Z" id="Shape"></path>
        </g>
    </g>
</svg>