<?xml version="1.0" encoding="UTF-8"?>
<svg width="24px" height="24px" viewBox="0 0 24 24" version="1.1" xmlns="http://www.w3.org/2000/svg" xmlns:xlink="http://www.w3.org/1999/xlink">
    <!-- Generator: Sketch 63.1 (92452) - https://sketch.com -->
    <title>instagram-v1</title>
    <desc>Created with Sketch.</desc>
    <g id="Page-1" stroke="none" stroke-width="1" fill="none" fill-rule="evenodd">
        <g id="instagram-v1" fill="#000000" fill-rule="nonzero">
            <path d="M12,2.2 C15.2,2.2 15.6,2.2 16.9,2.3 C20.2,2.4 21.7,4 21.8,7.2 C21.9,8.5 21.9,8.8 21.9,12 C21.9,15.2 21.9,15.6 21.8,16.8 C21.7,20 20.1,21.6 16.9,21.7 C15.6,21.8 15.3,21.8 12,21.8 C8.8,21.8 8.4,21.8 7.2,21.7 C3.9,21.6 2.4,20 2.3,16.8 C2.2,15.5 2.2,15.2 2.2,12 C2.2,8.8 2.2,8.4 2.3,7.2 C2.4,4 4,2.4 7.2,2.3 C8.4,2.2 8.8,2.2 12,2.2 Z M12,0 C8.7,0 8.3,0 7.1,0.1 C2.7,0.3 0.3,2.7 0.1,7.1 C0,8.3 0,8.7 0,12 C0,15.3 0,15.7 0.1,16.9 C0.3,21.3 2.7,23.7 7.1,23.9 C8.3,24 8.7,24 12,24 C15.3,24 15.7,24 16.9,23.9 C21.3,23.7 23.7,21.3 23.9,16.9 C24,15.7 24,15.3 24,12 C24,8.7 24,8.3 23.9,7.1 C23.7,2.7 21.3,0.3 16.9,0.1 C15.7,0 15.3,0 12,0 Z M12,5.8 C8.6,5.8 5.8,8.6 5.8,12 C5.8,15.4 8.6,18.2 12,18.2 C15.4,18.2 18.2,15.4 18.2,12 C18.2,8.6 15.4,5.8 12,5.8 Z M12,16 C9.8,16 8,14.2 8,12 C8,9.8 9.8,8 12,8 C14.2,8 16,9.8 16,12 C16,14.2 14.2,16 12,16 Z M18.4,4.2 C17.6,4.2 17,4.8 17,5.6 C17,6.4 17.6,7 18.4,7 C19.2,7 19.8,6.4 19.8,5.6 C19.8,4.8 19.2,4.2 18.4,4.2 Z" id="Shape"></path>
        </g>
    </g>
</svg>