<?xml version="1.0" encoding="utf-8"?>
<!-- Generator: Adobe Illustrator 22.0.1, SVG Export Plug-In . SVG Version: 6.00 Build 0)  -->
<svg version="1.1" id="Layer_1" xmlns="http://www.w3.org/2000/svg" xmlns:xlink="http://www.w3.org/1999/xlink" x="0px" y="0px"
	 viewBox="0 0 24 24" style="enable-background:new 0 0 24 24;" xml:space="preserve">
<style type="text/css">
	.st0{fill:#FFFFFF;}
</style>
<path class="st0" d="M21.2,0H2.8C1.2,0,0,1.2,0,2.8v18.5C0,22.8,1.2,24,2.8,24h18.5c1.5,0,2.8-1.2,2.8-2.8V2.8C24,1.2,22.8,0,21.2,0
	z M12,7.4c2.5,0,4.6,2.1,4.6,4.6c0,2.5-2.1,4.6-4.6,4.6S7.4,14.5,7.4,12C7.4,9.5,9.5,7.4,12,7.4z M21,20.1c0,0.5-0.4,0.9-0.9,0.9
	H3.9C3.4,21,3,20.6,3,20.1V10h1.9c-0.1,0.3-0.2,0.6-0.2,1c-0.1,0.3-0.1,0.7-0.1,1c0,4.1,3.3,7.4,7.4,7.4s7.4-3.3,7.4-7.4
	c0-0.4,0-0.7-0.1-1c0-0.3-0.1-0.7-0.2-1H21C21,10,21,20.1,21,20.1z M21,6.1C21,6.6,20.6,7,20.1,7h-2.2C17.4,7,17,6.6,17,6.1V3.9
	C17,3.4,17.4,3,17.9,3h2.2C20.6,3,21,3.4,21,3.9V6.1z"/>
</svg>
