<?xml version="1.0" encoding="UTF-8"?>
<svg width="90px" height="90px" viewBox="0 0 90 90" version="1.1" xmlns="http://www.w3.org/2000/svg" xmlns:xlink="http://www.w3.org/1999/xlink">
    <!-- Generator: Sketch 64 (93537) - https://sketch.com -->
    <title>noun_export pdf_2021663</title>
    <desc>Created with Sketch.</desc>
    <g id="Page-1" stroke="none" stroke-width="1" fill="none" fill-rule="evenodd">
        <g id="noun_export-pdf_2021663" fill="#FFFFFF" fill-rule="nonzero">
            <path d="M76.5,27.7 C74.5,27.7 72.8,29.4 72.8,31.4 L72.8,75.4 C72.8,79 69.8,82 66.2,82 L14.7,82 C11.1,82 8.1,79 8.1,75.4 L8.1,23.9 C8.1,20.3 11.1,17.3 14.7,17.3 L57.8,17.3 C59.8,17.3 61.5,15.6 61.5,13.6 C61.5,11.6 59.8,9.9 57.8,9.9 L14.7,9.9 C7,9.9 0.7,16.2 0.7,23.9 L0.7,75.4 C0.7,83.1 7,89.4 14.7,89.4 L66.2,89.4 C73.9,89.4 80.2,83.1 80.2,75.4 L80.2,31.4 C80.2,29.4 78.6,27.7 76.5,27.7 Z" id="Path"></path>
            <path d="M63.7,0.6 C61.7,0.6 60,2.3 60,4.3 C60,6.3 61.7,8 63.7,8 L76.3,8 L41.8,42.5 C40.4,43.9 40.4,46.3 41.8,47.7 C42.5,48.4 43.5,48.8 44.4,48.8 C45.3,48.8 46.3,48.4 47,47.7 L81.9,12.8 L81.9,25.4 C81.9,27.4 83.6,29.1 85.6,29.1 C87.6,29.1 89.3,27.4 89.3,25.4 L89.3,0.6 L63.7,0.6 Z" id="Path"></path>
            <path d="M13.6,53.8 L21.3,53.8 C22.4,53.8 23.4,53.9 24.3,54.1 C25.3,54.3 26.1,54.6 26.8,55.1 C27.5,55.6 28.1,56.2 28.5,57 C28.9,57.8 29.1,58.8 29.1,60 C29.1,61.2 28.9,62.2 28.5,63 C28.1,63.8 27.6,64.5 26.9,65 C26.2,65.5 25.4,65.8 24.5,66 C23.6,66.2 22.6,66.3 21.5,66.3 L18.2,66.3 L18.2,74.3 L13.7,74.3 L13.7,53.8 L13.6,53.8 Z M18.1,62.5 L21.1,62.5 C21.5,62.5 21.9,62.5 22.3,62.4 C22.7,62.3 23,62.2 23.3,62 C23.6,61.8 23.8,61.6 24,61.2 C24.2,60.9 24.3,60.5 24.3,60 C24.3,59.5 24.2,59.1 23.9,58.7 C23.7,58.4 23.3,58.1 23,58 C22.6,57.8 22.2,57.7 21.7,57.7 C21.2,57.7 20.8,57.6 20.4,57.6 L18.1,57.6 L18.1,62.5 Z" id="Shape"></path>
            <path d="M31.9,53.8 L38.7,53.8 C40.3,53.8 41.9,54 43.4,54.4 C44.9,54.8 46.2,55.4 47.3,56.2 C48.4,57 49.3,58.1 49.9,59.4 C50.6,60.7 50.9,62.3 50.9,64.2 C50.9,65.9 50.6,67.3 50,68.6 C49.4,69.9 48.5,70.9 47.5,71.8 C46.4,72.7 45.2,73.3 43.8,73.8 C42.4,74.2 40.9,74.5 39.4,74.5 L32,74.5 L32,53.8 L31.9,53.8 Z M36.4,70.2 L38.8,70.2 C39.8,70.2 40.8,70.1 41.7,69.9 C42.6,69.7 43.4,69.3 44,68.8 C44.7,68.3 45.2,67.7 45.6,66.8 C46,66 46.2,65 46.2,63.8 C46.2,62.8 46,61.9 45.6,61.2 C45.2,60.5 44.7,59.8 44.1,59.4 C43.5,58.9 42.7,58.6 41.8,58.3 C41,58.1 40.1,58 39.1,58 L36.4,58 L36.4,70.2 Z" id="Shape"></path>
            <polygon id="Path" points="54.2 53.8 68 53.8 68 58 58.7 58 58.7 62.2 67.3 62.2 67.3 66.4 58.7 66.4 58.7 74.4 54.2 74.4 54.2 53.8"></polygon>
        </g>
    </g>
</svg>