<?xml version="1.0" encoding="UTF-8"?>
<svg width="22px" height="22px" viewBox="0 0 22 22" version="1.1" xmlns="http://www.w3.org/2000/svg" xmlns:xlink="http://www.w3.org/1999/xlink">
    <!-- Generator: Sketch 51.1 (57501) - http://www.bohemiancoding.com/sketch -->
    <title>rss-symbol</title>
    <desc>Created with Sketch.</desc>
    <defs></defs>
    <g id="Page-1" stroke="none" stroke-width="1" fill="none" fill-rule="evenodd">
        <g id="rss-symbol" fill="#FFFFFF" fill-rule="nonzero">
            <path d="M4.97644084,16.9707796 C5.50826914,17.5020464 5.83168445,18.2226357 5.83367517,19.0249977 C5.83163341,19.8257262 5.50826914,20.5465708 4.97843155,21.0754385 L4.97638979,21.0764084 C4.44563341,21.6048167 3.7205522,21.9278747 2.9143109,21.9278747 C2.10909049,21.9278747 1.38584687,21.6038469 0.855192575,21.0754896 C0.325865429,20.5465708 0,19.826645 0,19.0249977 C0,18.2226357 0.325865429,17.5003619 0.855192575,16.9703202 L0.855192575,16.9707796 C1.38610209,16.4419629 2.10934571,16.1165568 2.9143109,16.1165568 C3.72060325,16.1165568 4.44496984,16.4428817 4.97644084,16.9707796 Z M4.97644084,16.9703202 L4.97644084,16.9712202 C4.97834084,16.9712202 4.97834084,16.9712202 4.97834084,16.9712202 L4.97644084,16.9703202 Z M0.856122738,21.0773385 C0.856122738,21.0773385 0.856122738,21.0773385 0.856122738,21.0754385 C0.854222738,21.0754385 0.854222738,21.0754385 0.854222738,21.0754385 L0.856122738,21.0773385 Z M0.00234802784,7.46565661 L0.00234802784,11.6578561 C2.7392297,11.6595406 5.32767517,12.7346821 7.26479814,14.6747657 C9.20156381,16.6087239 10.2721624,19.2010998 10.2765522,21.9473735 L10.2779814,21.9473735 L10.2779814,21.9549791 L14.4874339,21.9549791 C14.484116,17.9616473 12.8608631,14.3443573 10.2365336,11.7181392 C7.61179582,9.09227842 3.99598608,7.46815777 0.00234802784,7.46565661 Z M0.0100046404,0 L0.0100046404,4.19015777 C9.79316473,4.19730394 17.7459861,12.1624269 17.7526218,21.9549281 L21.9549281,21.9549281 C21.9520696,15.90258 19.4921531,10.4192715 15.5166357,6.44099768 C11.5396891,2.46410209 6.06000464,0.00260324826 0.0100046404,0 Z" id="RSS"></path>
        </g>
    </g>
</svg>