<?xml version="1.0" encoding="UTF-8"?>
<svg width="30px" height="30px" viewBox="0 0 311 311" version="1.1" xmlns="http://www.w3.org/2000/svg" xmlns:xlink="http://www.w3.org/1999/xlink">
    <!-- Generator: Sketch 51.1 (57501) - http://www.bohemiancoding.com/sketch -->
    <title>search</title>
    <desc>Created with Sketch.</desc>
    <defs></defs>
    <g id="Page-1" stroke="none" stroke-width="1" fill="none" fill-rule="evenodd">
        <g id="search" transform="translate(-1.000000, 0.000000)" fill-rule="nonzero">
            <g id="Group" transform="translate(155.920000, 155.500000) scale(-1, 1) translate(-155.920000, -155.500000) translate(0.420000, 0.000000)">
                <g>
                    <g>
                        <path d="M273.587,214.965 C322.697,165.854 322.696,85.944 273.587,36.833 C224.476,-12.278 144.566,-12.278 95.456,36.833 C53.792,78.497 47.482,140.462 76.51,188.85 C76.51,188.85 78.595,192.346 75.779,195.162 C59.715,211.226 11.517,259.425 11.517,259.425 C-1.274,272.215 -4.32,290.1 7.023,301.445 L8.976,303.396 C20.32,314.741 38.206,311.697 50.996,298.906 C50.996,298.906 99.092,250.809 115.125,234.778 C118.075,231.827 121.572,233.912 121.572,233.912 C169.958,262.938 231.923,256.629 273.587,214.965 Z M118.712,191.71 C82.424,155.422 82.425,96.378 118.712,60.09 C155,23.803 214.044,23.802 250.331,60.09 C286.619,96.377 286.619,155.422 250.331,191.71 C214.043,227.997 154.999,227.997 118.712,191.71 Z" id="Shape" fill="#FFFFFF"></path>
                        <g transform="translate(116.000000, 82.000000)">
                            <path d="M68.908,0.43 C30.888,0.43 0.067,38.35 0.067,44.545 C0.067,50.557 30.887,88.659 68.908,88.659 C106.928,88.659 137.749,50.729 137.749,44.545 C137.749,38.371 106.929,0.43 68.908,0.43 Z M68.908,75.941 C51.567,75.941 37.511,61.883 37.511,44.544 C37.511,27.205 51.568,13.147 68.908,13.147 C86.248,13.147 100.304,27.204 100.304,44.544 C100.304,61.884 86.248,75.941 68.908,75.941 Z" id="Shape" fill="#FFFFFF"></path>
                            <circle id="Oval" cx="68.908" cy="44.545" r="15.994"></circle>
                        </g>
                    </g>
                </g>
            </g>
        </g>
    </g>
</svg>
