<?xml version="1.0" encoding="UTF-8"?>
<svg width="27px" height="22px" viewBox="0 0 27 22" version="1.1" xmlns="http://www.w3.org/2000/svg" xmlns:xlink="http://www.w3.org/1999/xlink">
    <!-- Generator: Sketch 63.1 (92452) - https://sketch.com -->
    <title>twitter</title>
    <desc>Created with Sketch.</desc>
    <g id="Page-1" stroke="none" stroke-width="1" fill="none" fill-rule="evenodd">
        <g id="twitter" fill="#000000" fill-rule="nonzero">
            <path d="M26.9474737,2.64268421 C25.9558947,3.08236842 24.8905263,3.37957895 23.7722105,3.51321053 C24.9135789,2.829 25.7902105,1.74557895 26.2030526,0.454526316 C25.1346842,1.08815789 23.9516316,1.54821053 22.6922632,1.79610526 C21.6838421,0.721631579 20.2469474,0.0503157895 18.6567895,0.0503157895 C15.6035789,0.0503157895 13.1282632,2.52552632 13.1282632,5.57868421 C13.1282632,6.012 13.1771579,6.43394737 13.2714211,6.83863158 C8.67668421,6.608 4.60294737,4.40705263 1.87621053,1.06215789 C1.40031579,1.87868421 1.12763158,2.82836842 1.12763158,3.84157895 C1.12763158,5.75968421 2.10363158,7.45189474 3.58710526,8.44331579 C2.68084211,8.41457895 1.82836842,8.16589474 1.08305263,7.75178947 C1.08252632,7.77484211 1.08252632,7.798 1.08252632,7.82131579 C1.08252632,10.4999474 2.98826316,12.7343684 5.51731579,13.2423684 C5.05347368,13.3686316 4.565,13.4364211 4.06078947,13.4364211 C3.70452632,13.4364211 3.35821053,13.4016842 3.02057895,13.3370526 C3.72415789,15.5333684 5.76584211,17.132 8.18510526,17.1764737 C6.293,18.6594211 3.90915789,19.5431579 1.31889474,19.5431579 C0.872631579,19.5431579 0.432578947,19.5170526 5.26315789e-05,19.4657368 C2.44668421,21.0345263 5.35273684,21.9497895 8.47484211,21.9497895 C18.6438421,21.9497895 24.2047368,13.5254737 24.2047368,6.21968421 C24.2047368,5.98 24.1992632,5.74157895 24.1886842,5.50442105 C25.269,4.725 26.2063158,3.75131579 26.9474737,2.64268421 Z" id="Shape"></path>
        </g>
    </g>
</svg>